<svg width="444" height="379" viewBox="0 0 444 379" fill="none" xmlns="http://www.w3.org/2000/svg">
<path d="M197.911 205.703C197.911 205.703 208.36 236.616 237.123 233.272C265.887 229.929 265.588 161.102 265.588 161.102L197.911 205.703Z" fill="#68E1FD"/>
<path opacity="0.08" d="M197.911 205.703C197.911 205.703 208.36 236.616 237.123 233.272C265.887 229.929 265.588 161.102 265.588 161.102L197.911 205.703Z" fill="black"/>
<path d="M254.969 70.3105L245.028 71.8531L245.865 77.2516L255.807 75.709L254.969 70.3105Z" fill="#FFD200"/>
<path opacity="0.08" d="M254.969 70.3105L245.028 71.8531L245.865 77.2516L255.807 75.709L254.969 70.3105Z" fill="black"/>
<path d="M257.345 85.588L247.403 87.1306L248.241 92.5291L258.182 90.9865L257.345 85.588Z" fill="#FFD200"/>
<path opacity="0.08" d="M257.345 85.588L247.403 87.1306L248.241 92.5291L258.182 90.9865L257.345 85.588Z" fill="black"/>
<path d="M259.414 99.6422L249.472 101.185L250.31 106.583L260.252 105.041L259.414 99.6422Z" fill="#FFD200"/>
<path opacity="0.08" d="M259.414 99.6422L249.472 101.185L250.31 106.583L260.252 105.041L259.414 99.6422Z" fill="black"/>
<path d="M262.6 113.455L252.659 114.998L253.496 120.396L263.438 118.854L262.6 113.455Z" fill="#FFD200"/>
<path opacity="0.08" d="M262.6 113.455L252.659 114.998L253.496 120.396L263.438 118.854L262.6 113.455Z" fill="black"/>
<path d="M264.812 127.563L254.87 129.105L255.708 134.504L265.649 132.961L264.812 127.563Z" fill="#FFD200"/>
<path opacity="0.08" d="M264.812 127.563L254.87 129.105L255.708 134.504L265.649 132.961L264.812 127.563Z" fill="black"/>
<path opacity="0.45" d="M221.51 378.12C343.847 378.12 443.021 365.589 443.021 350.132C443.021 334.676 343.847 322.145 221.51 322.145C99.1735 322.145 0 334.676 0 350.132C0 365.589 99.1735 378.12 221.51 378.12Z" fill="#E6E6E6"/>
<path d="M222.854 30.0173C222.854 30.0173 223.6 41.2122 221.57 48.6009C221.37 49.318 221.031 49.9886 220.571 50.5742C220.112 51.1599 219.541 51.6491 218.892 52.0138C218.243 52.3785 217.528 52.6115 216.789 52.6995C216.05 52.7875 215.301 52.7287 214.584 52.5266C210.883 51.4519 206.181 48.9144 205.046 42.9736L201.897 33.1071C201.464 31.0567 201.682 28.9225 202.519 27.0015C203.357 25.0806 204.772 23.4686 206.569 22.3898C212.972 18.0164 222.734 23.166 222.854 30.0173Z" fill="#F4A28C"/>
<path d="M203.867 32.6892L191.284 67.2293L210.808 72.8118L212.106 46.1231L203.867 32.6892Z" fill="#F4A28C"/>
<path d="M200.747 28.1366L200.27 42.5407C201.904 43.2103 203.72 43.2921 205.407 42.7722C207.095 42.2523 208.55 41.1628 209.524 39.6897C210.557 38.1848 211.126 36.4108 211.163 34.5862C211.201 32.7616 210.703 30.966 209.733 29.4203C214.495 30.4054 221.018 28.2858 222.988 28.2261C224.152 28.2261 222.749 29.0919 222.988 24.0168C222.394 22.4027 221.449 20.9409 220.22 19.7378C218.991 18.5346 217.509 17.6203 215.883 17.0611C210.196 15.0161 200.255 16.4192 200.747 28.1366Z" fill="#24285B"/>
<path d="M222.958 36.7641L226.167 42.272L222.555 43.1079L222.958 36.7641Z" fill="#F4A28C"/>
<path d="M179.805 336.624C179.805 336.624 179.805 343.311 184.925 345.714C190.045 348.117 189.597 353.849 184.298 353.446C178.999 353.043 168.894 342.356 168.894 342.356L172.059 334.788L179.805 336.624Z" fill="#68E1FD"/>
<path d="M257.274 340.52C257.274 340.52 258.483 347.087 264.006 348.491C269.529 349.894 270.111 355.611 264.827 356.208C259.543 356.805 247.617 348.192 247.617 348.192L249.319 340.162L257.274 340.52Z" fill="#68E1FD"/>
<path d="M191.284 26.5693C191.284 26.5693 217.211 37.1522 234.765 32.6892L228.018 28.9874C226.883 28.3585 225.896 27.4935 225.123 26.4506C224.351 25.4078 223.811 24.2114 223.54 22.9421L220.928 10.9113L201.747 12.8667L200.912 19.6583C200.737 21.0319 200.152 22.3209 199.233 23.3568C198.315 24.3927 197.105 25.1274 195.762 25.4647L191.284 26.5693Z" fill="#24285B"/>
<path d="M162.237 62.1691C165.998 62.8558 169.79 63.4827 173.596 63.9006C186 65.2888 213.316 69.1697 235.825 78.1704C265.991 90.2311 272.888 167.73 208.688 221.212H141.907C141.907 221.212 100.545 137.324 111.74 93.4104C120.711 58.2136 150.624 60.0496 162.237 62.1691Z" fill="#3D84B8"/>
<path d="M141.907 221.212L173.82 262.917C178.796 269.413 182.039 277.069 183.242 285.163C184.446 293.258 183.572 301.525 180.701 309.189L171.208 334.564L183.269 340.221L199.479 309.129C204.07 300.335 206.523 290.581 206.637 280.661C206.751 270.74 204.524 260.933 200.136 252.035L190.045 231.571L208.688 221.271L141.907 221.212Z" fill="#24285B"/>
<path d="M222.57 73.5581C222.57 73.5581 241.288 165.491 203.658 221.212H208.688C208.688 221.212 244.437 182.403 232.675 75.8717C232.675 75.8717 226.526 74.6328 222.57 73.5581Z" fill="#24285B"/>
<path d="M162.237 62.1691C162.237 62.1691 218.495 117.845 172.059 221.212H162.237C162.237 221.212 213.405 116.427 147.415 61.378C152.338 60.3212 157.454 60.5943 162.237 62.1691Z" fill="#24285B"/>
<path opacity="0.08" d="M154.475 82.0961C154.475 82.0961 169.909 109.248 166.028 134.235C162.147 159.222 231.526 84.2455 231.526 84.2455L241.452 123.667C241.452 123.667 227.242 198.374 141.937 221.212L132.488 199.673C132.488 199.673 121.368 116.965 154.475 82.0961Z" fill="black"/>
<path d="M220.883 47.2874L229.153 45.2872C231.135 44.8101 233.195 44.7444 235.204 45.094C237.213 45.4437 239.129 46.2014 240.834 47.3204C242.539 48.4393 243.997 49.8958 245.117 51.5999C246.238 53.304 246.997 55.2196 247.348 57.2285L267.574 172.462C268.004 174.876 269.14 177.109 270.839 178.879C272.537 180.649 274.721 181.876 277.116 182.406C279.511 182.937 282.009 182.746 284.295 181.858C286.582 180.97 288.554 179.425 289.963 177.417L304.472 156.639L354.894 219.928L308.622 239.482C300.872 242.758 292.44 244.096 284.057 243.38C275.673 242.664 267.59 239.916 260.508 235.374C253.425 230.831 247.557 224.631 243.409 217.311C239.262 209.99 236.961 201.769 236.705 193.359L232.496 58.7659C232.439 56.6589 231.612 54.646 230.17 53.1083C228.729 51.5706 226.774 50.6148 224.675 50.4219L221.018 50.0637C220.733 49.9679 220.484 49.7885 220.303 49.549C220.122 49.3096 220.018 49.0211 220.003 48.7214C219.989 48.4216 220.065 48.1244 220.222 47.8686C220.379 47.6128 220.609 47.4102 220.883 47.2874Z" fill="#FFD200"/>
<path d="M208.688 221.212L259.364 340.161H245.587L181.835 231.511L208.688 221.212Z" fill="#24285B"/>
<path d="M180.253 64.7216L192.314 57.3777L202.315 68.4682L195.329 77.3047L180.253 64.7216Z" fill="#24285B"/>
<path d="M202.315 68.4682L211.48 63.0946L215.659 72.1102L207.211 78.9018L202.315 68.4682Z" fill="#24285B"/>
<path d="M201.792 95.8435C203.936 95.8435 205.673 94.1059 205.673 91.9626C205.673 89.8192 203.936 88.0817 201.792 88.0817C199.649 88.0817 197.911 89.8192 197.911 91.9626C197.911 94.1059 199.649 95.8435 201.792 95.8435Z" fill="white"/>
<path d="M205.673 153.938C207.817 153.938 209.554 152.2 209.554 150.057C209.554 147.913 207.817 146.176 205.673 146.176C203.53 146.176 201.792 147.913 201.792 150.057C201.792 152.2 203.53 153.938 205.673 153.938Z" fill="white"/>
<path d="M199.076 193.807C201.219 193.807 202.957 192.069 202.957 189.926C202.957 187.782 201.219 186.045 199.076 186.045C196.932 186.045 195.195 187.782 195.195 189.926C195.195 192.069 196.932 193.807 199.076 193.807Z" fill="white"/>
<path d="M197.911 127.547C200.055 127.547 201.792 125.81 201.792 123.667C201.792 121.523 200.055 119.786 197.911 119.786C195.768 119.786 194.03 121.523 194.03 123.667C194.03 125.81 195.768 127.547 197.911 127.547Z" fill="white"/>
<path d="M219.794 83.5888C219.794 83.5888 227.257 71.0654 233.765 71.6475C240.273 72.2297 237.392 88.216 225.018 92.5447L219.794 83.5888Z" fill="#F4A28C"/>
<path d="M157.162 99.0676C161.64 73.6925 130.548 58.139 113.113 77.036C105.785 84.9769 100.545 96.3361 100.545 112.636C100.545 166.491 100.978 197.508 132.428 199.673C163.879 201.837 226.645 91.9626 226.645 91.9626L218.599 82.0961C218.599 82.0961 159.998 138.966 138.892 152.326C147.612 135.587 153.771 117.635 157.162 99.0676Z" fill="#68E1FD"/>
<path opacity="0.46" d="M157.162 99.0676C161.64 73.6925 130.548 58.139 113.113 77.036C105.785 84.9769 100.545 96.3361 100.545 112.636C100.545 166.491 100.978 197.508 132.428 199.673C163.879 201.837 226.645 91.9626 226.645 91.9626L218.599 82.0961C218.599 82.0961 159.998 138.966 138.892 152.326C147.612 135.587 153.771 117.635 157.162 99.0676Z" fill="#3D84B8"/>
<path d="M355.761 219.234C362.801 214.099 357.657 195.062 344.272 176.713C330.887 158.365 314.33 147.654 307.291 152.789C300.251 157.924 305.395 176.961 318.779 195.31C332.164 213.658 348.721 224.369 355.761 219.234Z" fill="#FFD200"/>
<path opacity="0.46" d="M355.761 219.234C362.801 214.099 357.657 195.062 344.272 176.713C330.887 158.365 314.33 147.654 307.291 152.789C300.251 157.924 305.395 176.961 318.779 195.31C332.164 213.658 348.721 224.369 355.761 219.234Z" fill="white"/>
<path d="M350.586 209.097C353.996 206.609 348.832 193.725 339.052 180.318C329.272 166.912 318.58 158.06 315.17 160.547C311.76 163.035 316.924 175.92 326.704 189.326C336.483 202.733 347.176 211.584 350.586 209.097Z" fill="#FFD200"/>
<path opacity="0.08" d="M350.586 209.097C353.996 206.609 348.832 193.725 339.052 180.318C329.272 166.912 318.58 158.06 315.17 160.547C311.76 163.035 316.924 175.92 326.704 189.326C336.483 202.733 347.176 211.584 350.586 209.097Z" fill="black"/>
<path d="M200.942 18.8373C208.146 20.2058 215.508 20.5475 222.809 19.8523L224.794 26.017C224.794 26.017 217.182 27.5097 199.076 23.4646L200.942 18.8373Z" fill="#68E1FD"/>
<path d="M265.588 161.102C265.588 161.102 273.216 147.669 265.588 142.22C257.961 136.772 253.692 154.699 265.588 161.102Z" fill="#F4A28C"/>
<path opacity="0.16" d="M268.32 224.137C267.583 223.949 266.802 224.031 266.12 224.369C265.438 224.707 264.901 225.279 264.604 225.98C264.308 226.681 264.273 227.465 264.506 228.19C264.738 228.914 265.223 229.531 265.872 229.929C273.16 234.523 281.826 236.419 290.367 235.287C300.737 233.939 310.819 230.914 320.22 226.332C321.281 225.802 322.198 225.023 322.892 224.06C323.586 223.098 324.036 221.982 324.204 220.807C324.371 219.633 324.251 218.435 323.853 217.318C323.456 216.2 322.793 215.195 321.921 214.39C320.977 213.516 319.864 212.843 318.651 212.412C317.438 211.982 316.151 211.802 314.866 211.884C313.582 211.967 312.327 212.309 311.18 212.892C310.032 213.474 309.014 214.283 308.189 215.271C302.651 222.197 291.158 229.69 268.32 224.137Z" fill="white"/>
<path d="M381.896 237.437C382.124 236.756 382.613 236.193 383.255 235.873C383.898 235.552 384.641 235.5 385.322 235.728C386.003 235.955 386.565 236.444 386.886 237.087C387.206 237.729 387.259 238.473 387.031 239.153L374.015 278.127C378.253 278.717 382.142 280.797 384.986 283.993C390.479 289.755 392.016 297.218 388.419 300.651C384.822 304.084 377.433 302.218 372 296.457C367.806 291.979 365.94 286.68 366.88 282.858C366.873 282.724 366.873 282.59 366.88 282.455L381.896 237.437Z" fill="#E6E6E6"/>
<path d="M384.225 45.1827L355.775 43.3915L355.312 41.5406C355.162 41.004 354.807 40.5474 354.325 40.2684C353.842 39.9895 353.27 39.9104 352.73 40.048C352.194 40.1951 351.738 40.5464 351.458 41.0266C351.179 41.5067 351.1 42.0772 351.237 42.6154L359.118 73.8567C355.756 74.0491 352.576 75.4483 350.162 77.7973C345.52 81.9767 343.878 87.7085 346.49 90.6043C349.102 93.5 354.983 92.4701 359.626 88.3056C363.163 85.1113 364.94 81.0214 364.417 77.9615C364.432 77.8575 364.432 77.752 364.417 77.648L359.014 56.2135L384.225 45.1827Z" fill="#E6E6E6"/>
<path d="M91.9478 240.825L57.9749 238.467L57.4375 236.258C57.3591 235.935 57.218 235.631 57.0221 235.363C56.8263 235.096 56.5796 234.869 56.2962 234.696C56.0127 234.524 55.6981 234.409 55.3701 234.358C55.0422 234.307 54.7075 234.321 54.3851 234.399C54.0626 234.478 53.7587 234.619 53.4908 234.815C53.2229 235.011 52.9962 235.257 52.8237 235.541C52.6511 235.824 52.5361 236.139 52.4851 236.467C52.4342 236.795 52.4483 237.129 52.5267 237.452L61.6916 274.768C57.6899 274.993 53.8999 276.639 51.0042 279.41C45.4366 284.366 43.4364 291.202 46.5262 294.68C49.616 298.158 56.6464 296.979 62.214 292.023C66.4681 288.247 68.6175 283.366 68.0354 279.724C68.0428 279.6 68.0428 279.475 68.0354 279.351L61.7364 253.752L91.9478 240.825Z" fill="#E6E6E6"/>
<path d="M57.9747 57.721L33.8385 47.765C33.3907 47.5543 32.8779 47.5286 32.4113 47.6935C31.9446 47.8583 31.5618 48.2004 31.3457 48.6457L19.1507 74.3194C16.7571 72.5754 13.819 71.7443 10.8665 71.9759C5.37351 72.2147 1.02988 75.1851 1.17915 78.6332C1.32842 82.0812 5.89594 84.6038 11.4038 84.4396C15.5982 84.2605 19.106 82.4842 20.4792 80.1109C20.4792 80.1109 20.5986 79.9765 20.6434 79.887L31.4353 57.1687L52.3325 65.2888L43.287 84.2754C40.8979 82.5337 37.9653 81.7026 35.0177 81.9319C29.5098 82.1707 25.1661 85.1411 25.3154 88.5892C25.4647 92.0372 30.0471 94.6344 35.5401 94.3956C39.7345 94.2165 43.2422 92.4402 44.6155 90.0669C44.6155 90.0669 44.7349 89.9326 44.7796 89.843L58.8703 60.2138C59.08 59.7641 59.1035 59.2499 58.9358 58.783C58.768 58.3161 58.4226 57.9344 57.9747 57.721Z" fill="#E6E6E6"/>
<path opacity="0.49" d="M129.876 14.1802C133.792 14.1802 136.966 11.0059 136.966 7.09012C136.966 3.17435 133.792 0 129.876 0C125.96 0 122.786 3.17435 122.786 7.09012C122.786 11.0059 125.96 14.1802 129.876 14.1802Z" fill="#E6E6E6"/>
<path opacity="0.49" d="M397.181 166.401C400.017 166.401 402.316 164.102 402.316 161.267C402.316 158.431 400.017 156.132 397.181 156.132C394.345 156.132 392.046 158.431 392.046 161.267C392.046 164.102 394.345 166.401 397.181 166.401Z" fill="#E6E6E6"/>
<path opacity="0.49" d="M278.216 282.844C280.178 282.844 281.769 281.253 281.769 279.291C281.769 277.329 280.178 275.738 278.216 275.738C276.254 275.738 274.664 277.329 274.664 279.291C274.664 281.253 276.254 282.844 278.216 282.844Z" fill="#E6E6E6"/>
<path opacity="0.49" d="M126.338 282.844C128.3 282.844 129.891 281.253 129.891 279.291C129.891 277.329 128.3 275.738 126.338 275.738C124.376 275.738 122.786 277.329 122.786 279.291C122.786 281.253 124.376 282.844 126.338 282.844Z" fill="#E6E6E6"/>
<path opacity="0.49" d="M289.083 40.3167C292.018 40.3167 294.397 37.9376 294.397 35.0028C294.397 32.068 292.018 29.6889 289.083 29.6889C286.148 29.6889 283.769 32.068 283.769 35.0028C283.769 37.9376 286.148 40.3167 289.083 40.3167Z" fill="#E6E6E6"/>
<path opacity="0.49" d="M25.4348 178.223C31.3785 178.223 36.1968 173.405 36.1968 167.461C36.1968 161.517 31.3785 156.699 25.4348 156.699C19.4911 156.699 14.6727 161.517 14.6727 167.461C14.6727 173.405 19.4911 178.223 25.4348 178.223Z" fill="#E6E6E6"/>
</svg>
